# xmcd CD database file
#
# Track frame offsets:
#	150
#	16485
#	38452
#	67114
#	108990
#	131888
#	157732
#	199323
#	218655
#	247244
#	264146
#
# Disc length: 3925 seconds
#
# Revision: 0
# Processed by: cddbd v1.5.1PL0 Copyright (c) Steve Scherf et al.
# Submitted via: CDex 1.51
#
DISCID=970f530b
DTITLE=Delbert Bump Jazz Organ Trio - Organ-ization
DYEAR=1998
DGENRE=Jazz
TTITLE0=In the Zone
TTITLE1=Sunny Sun
TTITLE2=Sea of Trains
TTITLE3=Quiet Instrusion
TTITLE4=Bud Powell
TTITLE5=Funkajun
TTITLE6=Autumn Leaves
TTITLE7=Organ-ization
TTITLE8='Round Midnight
TTITLE9=Tally Ho
TTITLE10=Kinda Cool
EXTD=YEAR: 1998
EXTT0=
EXTT1=
EXTT2=
EXTT3=
EXTT4=
EXTT5=
EXTT6=
EXTT7=
EXTT8=
EXTT9=
EXTT10=
PLAYORDER=
